<svg version="1.1" viewBox="0.0 0.0 960.0 540.0" fill="none" stroke="none" stroke-linecap="square" stroke-miterlimit="10" xmlns:xlink="http://www.w3.org/1999/xlink" xmlns="http://www.w3.org/2000/svg"><clipPath id="g328722f6736_0_0.0"><path d="m0 0l960.0 0l0 540.0l-960.0 0l0 -540.0z" clip-rule="nonzero" data-index="0" style="visibility: visible;"></path></clipPath><g clip-path="url(#g328722f6736_0_0.0)"><path fill="#000000" fill-opacity="0.0" d="m451.90552 240.39896l0 0c0 -106.03868 85.9613 -192.0 192.0 -192.0l0 0c50.92157 0 99.75751 20.228516 135.76453 56.235497c36.006958 36.00699 56.235474 84.84294 56.235474 135.76451l0 0c0 106.038666 -85.9613 192.0 -192.0 192.0l0 0c-106.0387 0 -192.0 -85.961334 -192.0 -192.0z" fill-rule="evenodd" data-index="2" style="opacity: 1; visibility: visible;"></path><path stroke="#000000" stroke-width="24.0" stroke-linejoin="round" stroke-linecap="butt" d="m451.90552 240.39896l0 0c0 -106.03868 85.9613 -192.0 192.0 -192.0l0 0c50.92157 0 99.75751 20.228516 135.76453 56.235497c36.006958 36.00699 56.235474 84.84294 56.235474 135.76451l0 0c0 106.038666 -85.9613 192.0 -192.0 192.0l0 0c-106.0387 0 -192.0 -85.961334 -192.0 -192.0z" fill-rule="evenodd" data-index="3" style="opacity: 1; visibility: visible;"></path><path fill="#000000" fill-opacity="0.0" d="m471.63254 160.98163l360.94492 0l0 158.83466l-360.94492 0z" fill-rule="evenodd" data-index="4" style="opacity: 1; visibility: visible;"></path><path fill="#000000" d="m510.10324 173.98958l49.31253 0q16.671875 0 25.421875 2.546875q11.765625 3.46875 20.140625 12.3125q8.390625 8.828125 12.765625 21.640625q4.375 12.796875 4.375 31.578125q0 16.499985 -4.09375 28.437485q-5.015625 14.578125 -14.3125 23.609375q-7.015625 6.828125 -18.953125 10.65625q-8.9375 2.828125 -23.890625 2.828125l-50.765656 0l0 -133.60936zm26.984406 22.59375l0 88.499985l20.140625 0q11.296875 0 16.3125 -1.265625q6.5625 -1.640625 10.890625 -5.5625q4.328125 -3.921875 7.0625 -12.890625q2.734375 -8.984375 2.734375 -24.48436q0 -15.484375 -2.734375 -23.78125q-2.734375 -8.296875 -7.65625 -12.9375q-4.921875 -4.65625 -12.484375 -6.296875q-5.65625 -1.28125 -22.140625 -1.28125l-12.125 0zm126.85962 111.01561l-31.890625 -133.60936l27.609375 0l20.140625 91.781235l24.4375 -91.781235l32.078186 0l23.421875 93.32811l20.5 -93.32811l27.171875 0l-32.453125 133.60936l-28.625 0l-26.609436 -99.89061l-26.515625 99.89061l-29.265625 0z" fill-rule="nonzero" data-index="5" style="opacity: 1; visibility: visible;"></path></g></svg>