<svg xmlns="http://www.w3.org/2000/svg" version="1.1" viewBox="28.55 20.29 193.48 89.71">
  <!-- Generator: Adobe Illustrator 28.7.1, SVG Export Plug-In . SVG Version: 1.2.0 Build 142)  -->
  <g>
    <g id="Layer_1">
      <g>
        <g>
          <path d="M37.27,27.98c.15.73.29,1.24.35,1.76.13,1.21-.38,1.77-1.57,1.78-1.31.02-2.32-.56-2.82-1.74-.57-1.34-.34-2.76.59-3.8,1.49-1.65,3.25-3,5.53-3.48,4.23-.9,8.44-1.89,12.78-2.11,3.15-.16,6.3-.2,9.44.47,1.9.4,3.75.87,5.52,1.68,2.75,1.26,4.09,4.15,3.4,7.09-.46,1.98-1.75,3.41-2.86,4.97-1.05,1.47-2.28,2.83-3.2,4.37-.71,1.18-1.18,2.55-1.55,3.89-.83,2.99-1.73,5.98-1.02,9.16.5,2.27.89,4.57,1.34,6.86.3,1.55.56,3.11.96,4.63.34,1.3.87,2.55,1.26,3.84.28.94.84,1.21,1.73.89.71-.25,1.39-.22,1.99.28.67.55.72,1.14.14,1.8-.46.52-.98,1.01-1.39,1.57-1.47,1.99-4.76,1.99-5.95-.17-1.75-3.19-3.28-6.48-3.81-10.15-.27-1.87-.79-3.71-1.1-5.58-.74-4.44-.93-8.85,1.04-13.09,1.18-2.54,2.2-5.17,3.44-7.68.83-1.67,1.98-3.18,2.89-4.81,1.02-1.82.18-4.11-1.68-4.96-2.19-1-4.5-1.4-6.86-1.26-3.86.24-7.7.67-11.56.96-2.63.2-4.68,1.7-7.02,2.84"/>
          <path d="M28.58,68.78c.66-2.14,1.22-3.99,1.82-5.82,1.24-3.78,2.53-7.55,3.75-11.33.91-2.83,1.67-5.72,2.64-8.53.68-1.98,1.55-3.91,2.44-5.82.54-1.15,1.7-1.48,2.83-.98,1,.44,1.54,1.51,1.21,2.62-.33,1.12-.74,2.22-1.17,3.31-1.34,3.36-2.85,6.66-4.02,10.07-.97,2.81-1.53,5.75-2.31,8.63-.41,1.52-.83,3.05-1.4,4.52-.73,1.87-1.13,3.79-1.28,5.78-.11,1.52-.82,2.25-2.12,2.31-.91.04-2.24-1.13-2.37-2.24-.11-.92-.02-1.86-.02-2.5"/>
        </g>
        <path d="M134.98,61.87c-.75.06-1.51.06-2.25.2-6.35,1.15-12.7,2.33-19.13.53-1.34-.37-2.68-.78-4.04-1.04-.3-.06-.87.37-1.04.71-.89,1.74-1.5,3.65-2.57,5.26-1.82,2.75-3.99,5.06-7.51,5.87-3.23.74-6.84-1.19-7.36-4.58-.74-4.8,2.98-9.27,6.26-10.99,1.12-.59,2.2-.15,2.97,1.03.66,1.01-.07,1.57-.7,2.11-1.57,1.34-2.85,2.91-3.81,4.74-.26.49-.63,1.05-.58,1.54.09.98.15,2.25.76,2.81.46.42,1.87.15,2.67-.23,4.06-1.93,6.45-5.34,7.87-9.49.36-1.06.29-2.05-.88-2.8-.89-.57-1.16-3.43-.61-4.36.7-1.2,1.93-1.47,2.72-.32.76,1.1,1.29,2.47,1.52,3.79.19,1.14.46,1.98,1.59,2.34,2.44.8,4.88,1.48,7.53,1.26,2.5-.21,5.04-.04,7.54-.29,2.67-.26,5.33-.75,7.97-1.26,2.07-.4,4.1-1.04,6.17-1.44.52-.1,1.13.3,1.7.46-.2.45-.36.93-.62,1.35-1.19,1.94-2.45,3.84-3.61,5.79-2.68,4.52-5.3,9.09-7.99,13.61-1.98,3.32-4.16,6.53-6.03,9.91-2.25,4.09-4.37,8.26-6.36,12.49-1.24,2.64-2.09,5.47-3.22,8.17-.19.46-.92.96-1.41.96-1.02.01-2.29-.22-2.35-1.5-.06-1.3.09-2.74.59-3.92,1.16-2.75,2.59-5.38,3.9-8.07,1.16-2.39,2.21-4.85,3.49-7.18,1.63-2.99,3.4-5.9,5.19-8.8,2.88-4.69,5.8-9.37,8.76-14.02.94-1.47,2.06-2.83,3.1-4.24-.08-.14-.15-.27-.23-.41Z"/>
        <path d="M156.17,67.84c-1.91.21-3.59,1.88-5.51.02.25-.27.47-.6.77-.8,1-.69,1.99-1.4,3.05-1.99,1.37-.77,2.13-1.88,2.76-3.35,1.35-3.16,3.92-5.24,7.18-6.24,2.43-.75,4.53,1.4,4.34,4.17-.11,1.58-.8,2.84-2.05,3.82-1.64,1.28-3.31,2.38-5.48,2.58-.56.05-1.06.68-1.59,1.05.57.53,1.07,1.41,1.72,1.53,3.06.55,5.83-.56,8.35-2.1,5.01-3.06,8.23-7.5,9.59-13.26.2-.84.57-1.7,1.09-2.38.75-.99,2.21-1.12,3.14-.32,2.09,1.79,4.16,3.61,6.15,5.51,1.21,1.15,1.12,3.22.13,4.6-1.23,1.7-2.42,3.43-3.51,5.22-.95,1.56-.45,2.35,1.31,2.37,3.17.03,6.34.21,9.51.08,2.17-.09,4.32-.57,6.48-.91.75-.12.85-.55.56-1.23-1.9-4.42,1.59-8.95,4.73-10.48,1.3-.63,4.75-.07,5.67,1.05.45.55.72,1.41.71,2.12-.03,3.19-2.02,5.31-4.22,7.29-.31.27-.63.53-1.13.94.48.26.81.57,1.16.6,2.23.16,4.46.3,6.69.36.4.01,1.01-.25,1.15-.56.13-.29-.15-.87-.41-1.2-.54-.68-1.62-1.4-.77-2.2.96-.9,1.76.18,2.4.91.52.59,1.01,1.22,1.42,1.89,1.09,1.77.2,3.53-1.91,3.72-1.54.14-3.08.18-4.63.17-1.87-.02-3.74-.04-5.59-.25-1.11-.13-2.17-.68-3.28-.96-.6-.15-1.27-.32-1.84-.19-7.01,1.67-14.07,1.47-21.15.6-1.77-.22-2.73-1.84-1.86-3.43,1.23-2.24,2.64-4.39,4.13-6.47,1.6-2.21,1.36-3.86-1.01-5.23-.16-.09-.29-.23-.44-.35-1.06-.83-1.39-.74-1.95.48-.86,1.86-1.79,3.68-2.6,5.56-1.33,3.07-3.76,5.13-6.49,6.76-2.34,1.4-4.85,2.62-7.42,3.52-1.75.61-3.73.72-5.61.74-1.53.01-2.46-1.21-3.16-2.48-.22-.4-.37-.84-.56-1.29ZM208.71,64.64c1.46-.63,3.51-3.73,3.41-5.09-.02-.31-.3-.84-.49-.85-.51-.04-1.29-.04-1.52.27-1.22,1.66-1.55,3.57-1.4,5.67ZM161.04,63.47c1.25-.63,2.42-1.08,3.42-1.79.41-.29.48-1.14.57-1.75.02-.14-.52-.55-.77-.52-.81.08-3.03,2.8-3.22,4.06Z"/>
        <path d="M169.78,38.91c1.7.54,3.44.99,5.09,1.66.46.19.89.98.91,1.51.01.32-.76.74-1.24,1-2.14,1.12-4.14.19-6.19-.4-1.83-.52-3.7-.9-5.55-1.34-.18-.04-.42-.03-.53-.15-.63-.66-1.77-1.4-1.72-2.03.1-1.26,1.43-1.05,2.38-.95,2.27.25,4.53.57,6.79.86.02-.06.04-.12.06-.17Z"/>
      </g>
    </g>
  </g>
</svg>