<svg viewBox="0 0 853.72 344.44" xmlns="http://www.w3.org/2000/svg" data-sanitized-data-name="Layer 2" data-name="Layer 2" id="Layer_2">
  <defs>
    <style>
      .cls-1 {
        fill: #231f20;
      }
    </style>
  </defs>
  <g data-sanitized-data-name="Layer 1" data-name="Layer 1" id="Layer_1-2">
    <g>
      <path d="M199.01,309.11c.05,.29-.16,.58-.47,.61-.65,.04-10.13-.05-11.13,0-1.17,.05-2.53,.08-3.77,.11-.43,0-.77,.35-.77,.78-.05,3.11-.25,15.69-.27,21.45,0,2.01,.09,4.03,.1,6.04,0,1.77-.02,3.73-.06,5.5-.02,.63-.33,.85-.94,.84-1.9-.03-5.05,.05-7.11,0-.56-.02-1-.47-1-1.02-.04-4.32,.25-18.97,.22-23.31-.02-2.49-.07-5.62-.13-8.11,0-.51,0-1.11,0-1.64,0-.23-.19-.42-.42-.42-2.27,0-11.68-.12-14.53-.07-.23-.04-.48-.06-.7-.14-.35-.12-.61-.35-.67-.75-.05-.35,0-6.77,.09-7.13,.31-.05,.65-.16,.98-.15,1.42,.04,32.89,.06,35.49,.03,1.06,0,2.13-.02,3.2-.02,.35,0,.71,0,1.05,.04,.41,.06,.77,.73,.79,1.13,.05,.88-.18,4.96,.03,6.24h.02Z" class="cls-1"></path>
      <path d="M255.73,344.41c-.25-.06-.21-.81-.22-1.14-.03-1.48-.1-3.38,.02-4.86,.24-2.96,.18-5.91-.02-8.86-.07-.99-.06-2-.1-3.07-.39-.09-7.21-.31-10.29-.11-1.76,.11-3.55,.04-5.32,.06-1.77,.01-3.55,.01-5.33,.03-.34,0-.68,.07-1.11,.11-.03,.61-.08,1.12-.08,1.65,.03,3.02,.07,6.04,.09,9.06,0,1.71-.07,3.7-.02,5.41,.04,1.3-.74,1.8-1.87,1.71-1.82-.14-3.65,.05-5.47,0-.35,0-.76,0-1.02,0-.6-.53-.51-1.36-.51-1.96-.02-1.96-.03-4.16-.04-6.12-.02-2.49-.05-4.97-.09-7.47-.07-4.2-.17-8.41-.22-12.6-.04-4.33-.03-8.64-.03-12.97,0-.89,.24-1.55,1.11-1.62,.41-.03,4.74,0,6.71,.02,.47-.05,.77,.24,.79,.74,.02,.29-.02,.6-.02,.88,.02,3.08,.03,6.52,.05,9.61,.02,1.36,.08,2.71,.14,4.07,0,.28,.06,.57,.1,.94,3.79,.27,18.64,.06,22.46,0,.06-.48,.19-.87,.15-1.26-.14-1.24-.06-2.47,0-3.72,.07-1.88-.03-3.78-.07-5.68-.03-1.37-.1-2.72-.1-4.08,0-.89,.35-1.29,1.25-1.46,.52-.1,1.05-.12,1.59-.12,1.3,.02,2.6,.05,3.9,.1,1.63,.07,2,.41,2.04,2.01,.03,1.54,0,3.08,0,4.62,.04,3.2,0,6.39,.2,9.58,.25,3.97,.26,20.95,.22,25.26,0,.73-.24,1.16-.85,1.18-2.89,0-5.32,.03-8.08,0h.02l-.02,.02Z" class="cls-1"></path>
      <path d="M301.83,326.12c-.32,1.62-.13,8.17,.31,10.3,.1,.05,.2,.14,.3,.14,3.48,.11,6.65,.03,10.14-.03,3.08-.06,5.82,0,8.91,0,2.07,0,4.15,.33,6.22,.05,.62-.08,.92,.17,.95,.75,.09,1.64-.06,2.35,0,3.99,0,.28-.02,.75-.05,1.04-.15,1.08,.48,2-.61,2-1.54,.02-27.67-.03-30.04,.03-1.42,.03-2.83-.02-4.06-.03-.59-.39-.57-.81-.57-1.23,0-1.77,.03-3.56,0-5.33-.11-3.97-.28-8.22-.39-12.19-.03-1.36,0-2.71,.02-4.08,0-.23,.02-.48,.02-.71,0-3.56,.03-7.1,0-10.66-.02-2.31-.13-4.61-.18-6.92-.03-1.11,.51-1.57,1.63-1.61,1.89-.05,3.79-.04,5.69-.04,4.5,0,20.41,.09,23.91,.14,1,.02,1.57-.12,2.57-.1,.28,0,.83-.03,1.29-.03,.28,0,.52,.22,.54,.49,.1,.94-.03,4.03,.08,4.62,.19,1.02,0,1.64-.28,2.52-.53,.45-1.08,.35-1.61,.35-1.96,0-3.91-.08-5.86-.03-4.74,.11-9.47-.03-14.21,.06-1.42,.03-3.16,.06-4.59,.09-.1,.18-.26,.33-.27,.48-.02,2.59,0,5.52,0,8.02,.33,.45,.71,.37,1.05,.36,2.96-.05,16.67,.14,20.39-.08,.23-.02,.49,0,.7,.06,.43,.11,.73,.39,.81,.85,.03,.17,.05,.35,.05,.53v3.62c0,.2,0,.41-.03,.62-.13,1.05-.45,1.74-1.39,1.75-2.79,.03-5.56,.04-8.35,.06-3.9,.02-7.82,.03-11.72,.04-.47,0-.92,.06-1.35,.09l-.02,.02Z" class="cls-1"></path>
      <path d="M400.87,302.4c0-.46,.4-.8,.84-.77,.25,.02,.48,.04,.71,.04,1.12,0,2.25,.06,3.37,.05,.91,0,2.17-.04,3.14-.08,.4-.02,.74,.27,.81,.66,.02,.09,.03,.16,.03,.25,.02,1.43-.07,3.49-.04,4.91,.03,1.99-.41,27.91-.22,28.88,.4,.04,4.1-.06,5.59-.05,.75,0,10.98,.14,16.93-.02,1.05,.05,2.71,.07,3.77,.18,.17,.02,.35,.09,.51,.15,.43,.15,.63,.5,.59,.98-.05,.59-.16,1.17-.17,1.76-.03,1.06,0,2.13,0,3.2,0,.41-.03,.83-.08,1.24-.04,.33-.3,.49-.61,.55-.17,.03-.35,.02-.53,.02-2.78,0-5.57,.05-8.35,0-2.54-.04-18.91-.02-24.37-.02-1.13,0-2.04-.93-2-2.07v-.16c-.02-4.8-.02-10.14-.03-14.93,0-6.46-.02-12.9,0-19.36,0-1.5,.09-3.62,.12-5.43v.02Z" class="cls-1"></path>
      <path d="M502.69,344.36h-1.27c-1.9,.03-6.15,0-7.02,0-.66,0-.66-.24-.94-.86-.9-2.07-2.16-6.15-3.11-8.18-.04-.1-.15-.18-.24-.29-.6-.25-1.38-.25-2.02-.23-.88,.02-12.14-.1-13.31,0-.46,.03-2.17-.09-2.66,0-1.17,2.48-2.75,6.72-3.9,9.26-.1,.2-.29,.33-.52,.33-.94,.02-3.31,0-4.31,0-1.12,0-2.2,.03-3.32-.02-1.24-.05-1.44-.35-.98-1.57,.76-2,1.48-3.59,2.35-5.53,2.56-5.72,9.45-22.83,10.56-25.52,.67-1.64,3.65-8.47,3.82-8.77,.26-.49,.76-1.24,1.35-1.3,.48-.04,.91,.03,1.38,0,.66-.05,1.3-.02,1.94,0v.02h3.14c1.05-.03,1.92,0,2.89,0,.16,.18,.33,.42,.36,.48,1.02,2.45,2.18,4.86,3.04,7.37,.96,2.81,2.72,6.25,3.71,9.05,1.85,5.31,3.98,9.74,5.99,14.99,1.02,2.66,2.08,5.15,3.23,7.73,.31,.7,.67,1.58,.99,2.28,.33,.72-.3,.83-1.12,.82v-.04Zm-14.74-17.34c-1.56-4.85-4.53-11.87-6.38-16.87-1.01,1.79-4.9,11.72-5.45,13.1-.54,1.34-.63,1.23-1.51,3.53-.08,.21,.1,.43,.33,.45,.69,.06,12.1,.09,12.48,.02l.36,.02c.12,0,.22-.11,.18-.23h0Z" class="cls-1"></path>
      <path d="M529.49,344.28c-.12-.14-.19-.18-.2-.23-.14-3.72-.33-7.21-.41-10.92-.06-3.9,0-7.81,0-11.72,0-.83,.03-1.66,.03-2.48,0-1.83,.03-3.66,.19-5.49,.27-3.07,.24-7.21-.08-10.27-.1-.91,.31-1.28,.98-1.42,.69-.14,1.4-.16,2.12-.18,2.54-.05,12.25,.18,14.54,.05,2.79-.16,5.56-.26,8.33-.05,1.06,.08,11.52-.78,13.64,8.23,.39,1.62,.46,3.94,.05,5.54-.67,2.63-1.63,4.94-4.1,6.39-.24,.14-.47,.31-.79,.54,.63,.26,9.36,3.27,6.31,14.54-1.45,5.37-6.55,6.98-10.76,7.53-.76,.09-2.2-.07-2.96-.03-2.54,.12-5.12,.13-7.67,0-1.42-.07-7.19,.07-9.49,0-1.83-.05-3.65,.06-5.48,0-1.42-.04-2.83,0-4.28,0h.03v-.02Zm8.53-34.66c-.07,.14-.16,.24-.16,.34,0,2.01,.03,5.95,.05,7.95,0,.16,.09,.33,.14,.52,.18,.06,.34,.15,.49,.15,1.88,.07,3.78,.18,5.68,.18,3.2,0,6.38-.06,9.58-.1,.65-.01,1.3-.04,1.94-.11,2.08-.24,3.98-1.81,4.17-3.93,.28-3.08-1.01-4.88-4.22-5.05-.35-.02-.71-.03-1.06-.04-3.73-.02-7.47-.09-11.19-.07-1.82,0-3.66-.28-5.43,.17h0Zm-.15,26.87c.29,.04,.47,.11,.62,.09,2.29-.39,4.6-.24,6.9-.21,2.53,.04,10.79,.42,12.37,.22,.58-.07,1.17-.57,1.69-.81,.99-.46,1.87-1.76,2.13-2.9,.22-.92,.22-1.88,0-2.83-.95-3.97-6.96-3.69-10.01-3.6-3.14,.09-6.27,.15-9.4-.07-.94-.07-1.89-.08-2.84-.08-.46,0-.91,.11-1.47,.18v10.01Z" class="cls-1"></path>
      <path d="M606.53,326.12c-.33,1.62-.13,8.17,.31,10.3,.1,.05,.2,.14,.3,.14,3.48,.11,6.65,.03,10.15-.03,3.08-.06,5.82,0,8.92,0,2.07,0,4.16,.33,6.22,.05,.62-.08,.91,.17,.95,.75,.09,1.64-.06,2.35,0,3.99,0,.28-.02,.75-.05,1.04-.16,1.08,.47,2-.61,2-1.54,.02-27.68-.03-30.03,.03-1.42,.03-2.83-.02-4.08-.03-.58-.39-.56-.81-.56-1.23,0-1.77,.03-3.56,0-5.33-.11-3.97-.28-8.22-.4-12.19-.03-1.36,0-2.71,.02-4.08,0-.23,.02-.48,.02-.71,0-3.56,.03-7.1,0-10.66-.02-2.31-.13-4.61-.18-6.92-.03-1.11,.51-1.57,1.63-1.61,1.89-.05,3.79-.04,5.69-.04,4.5,0,20.41,.09,23.91,.14,1,.02,1.57-.12,2.57-.1,.28,0,.83-.03,1.29-.03,.28,0,.52,.22,.54,.49,.1,.94-.03,4.03,.08,4.62,.19,1.02,0,1.64-.28,2.52-.53,.45-1.09,.35-1.61,.35-1.95,0-3.9-.08-5.86-.03-4.73,.11-9.47-.03-14.2,.06-1.42,.03-3.16,.06-4.59,.09-.1,.18-.28,.33-.28,.48-.02,2.59,0,5.52,0,8.02,.32,.45,.7,.37,1.04,.36,2.96-.05,16.68,.14,20.39-.08,.23-.02,.48,0,.7,.06,.43,.11,.73,.39,.81,.85,.03,.17,.05,.35,.05,.53v3.62c0,.2,0,.41-.03,.62-.13,1.05-.45,1.74-1.39,1.75-2.79,.03-5.56,.04-8.35,.06-3.91,.02-7.82,.03-11.73,.04-.47,0-.91,.06-1.35,.09v.02Z" class="cls-1"></path>
      <path d="M660.36,302.4c0-.46,.4-.8,.84-.77,.25,.02,.48,.04,.71,.04,1.12,0,2.25,.06,3.37,.05,.92,0,2.16-.04,3.14-.08,.39-.02,.74,.27,.81,.66,.02,.09,.03,.16,.03,.25,.02,1.43-.07,3.49-.04,4.91,.02,1.99-.42,27.91-.22,28.88,.4,.04,4.09-.06,5.59-.05,.75,0,10.98,.14,16.93-.02,1.05,.05,2.7,.07,3.77,.18,.17,.02,.34,.09,.51,.15,.43,.15,.63,.5,.59,.98-.05,.59-.15,1.17-.17,1.76-.03,1.06,0,2.13,0,3.2,0,.41-.03,.83-.08,1.24-.04,.33-.31,.49-.61,.55-.17,.03-.35,.02-.53,.02-2.78,0-5.57,.05-8.35,0-2.54-.04-18.91-.02-24.37-.02-1.12,0-2.03-.93-1.99-2.07v-.16c-.02-4.8-.02-10.14-.03-14.93,0-6.46-.02-12.9,0-19.36,0-1.5,.09-3.62,.12-5.43l-.02,.02Z" class="cls-1"></path>
    </g>
    <g>
      <path d="M92.36,2.46h37.86l92.36,215.5h-37.56l-24.01-58.8H61.56l-24.01,58.8H0L92.36,2.46Zm55.72,124.68L111.44,36.32l-36.95,90.82h73.58Z" class="cls-1"></path>
      <path d="M259.57,168.09l31.1-7.7c3.39,13.86,20.31,28.32,46.8,28.32,19.7,0,40.33-9.85,40.33-31.71,0-16.62-12.31-22.78-39.41-33.25-25.86-10.16-66.19-24.62-66.19-65.88,0-15.7,6.16-30.47,17.86-41.25,12.31-11.4,28.01-16.62,46.8-16.62,27.71,0,53.26,16.31,64.03,40.95l-29.55,12.62c-4.61-10.77-17.24-22.16-34.78-22.16s-32.32,8.93-32.32,26.47,19.09,25.55,45.87,36.02c25.25,9.85,59.72,20.62,59.72,63.11,0,36.95-30.78,63.42-72.34,63.42-44.02,0-71.42-26.17-77.89-52.33h-.02Z" class="cls-1"></path>
      <path d="M516.01,34.47h-63.11V2.46h158.24V34.48h-63.11V217.96h-32.01V34.47h0Z" class="cls-1"></path>
      <path d="M678.86,2.46h71.11c34.17,0,74.2,19.7,74.2,67.12,0,44.64-35.1,63.72-69.57,66.5l99.13,81.89h-52.02l-90.82-80.66v80.66h-32.02V2.46Zm66.18,106.83c25.86,0,46.48-14.16,46.48-39.71,0-20.94-15.4-35.1-41.56-35.1h-39.1V109.29h34.17Z" class="cls-1"></path>
    </g>
  </g>
</svg>