<?xml version="1.0" standalone="no"?>
<!DOCTYPE svg PUBLIC "-//W3C//DTD SVG 20010904//EN"
 "http://www.w3.org/TR/2001/REC-SVG-20010904/DTD/svg10.dtd">
<svg version="1.0" xmlns="http://www.w3.org/2000/svg"
 width="679.000000pt" height="367.000000pt" viewBox="0 0 679.000000 367.000000"
 preserveAspectRatio="xMidYMid meet">

<g transform="translate(0.000000,367.000000) scale(0.100000,-0.100000)"
fill="#000000" stroke="none">
<path d="M3885 2769 c-325 -64 -501 -265 -482 -550 8 -126 60 -216 164 -285
75 -50 158 -81 407 -154 261 -76 302 -96 321 -158 17 -57 -49 -144 -122 -159
-60 -13 -170 -7 -218 12 -72 27 -125 104 -125 183 l0 22 -245 0 -245 0 0 -40
c0 -111 52 -238 132 -325 69 -75 156 -127 274 -165 315 -101 720 -34 904 150
142 142 182 378 93 554 -67 133 -200 207 -521 290 -298 77 -352 105 -352 181
0 82 133 130 262 95 65 -18 128 -87 128 -140 0 -20 5 -20 230 -20 l230 0 0 30
c0 52 -21 133 -52 198 -59 126 -182 217 -355 263 -90 24 -344 35 -428 18z"/>
<path d="M200 1943 l0 -803 605 0 605 0 0 205 0 205 -360 0 -360 0 0 598 0
597 -245 0 -245 0 0 -802z"/>
<path d="M1853 2742 l-243 -2 0 -544 c0 -618 3 -646 70 -782 67 -137 183 -227
352 -274 167 -47 434 -49 603 -5 169 43 307 147 369 279 67 141 68 151 73 769
l5 557 -251 0 -251 0 0 -505 c0 -318 -4 -522 -11 -554 -14 -69 -58 -133 -105
-156 -48 -23 -145 -31 -202 -15 -57 15 -116 70 -138 128 -17 42 -19 99 -24
577 l-5 530 -242 -3z"/>
<path d="M6040 2468 l0 -278 -235 0 -235 0 0 275 0 275 -247 0 -248 0 0 -800
0 -800 248 0 247 0 0 320 0 320 235 0 235 0 0 -320 0 -320 245 0 245 0 0 803
0 802 -245 0 -245 0 0 -277z"/>
</g>
</svg>
